PathFileType	4	(X/Y/Z)	OpenSim_Sub02_EMGBaseline_Gyro.trc
DataRate	CameraRate	NumFrames	NumMarkers	Units	OrigDataRate	OrigDataStartFrame	OrigNumFrames
100	100	34	8	m	100	1	6727
Frame#	Time	torso_imu_offset_imu	pelvis_imu_offset_imu	tibia_r_imu_offset_imu	femur_r_imu_offset_imu	tibia_l_imu_offset_imu	femur_l_imu_offset_imu	toes_r_imu_offset_imu	toes_l_imu_offset_imu
				X1	Y1	Z1	X2	Y2	Z2	X3	Y3	Z3	X4	Y4	Z4	X5	Y5	Z5	X6	Y6	Z6	X7	Y7	Z7	X8		Y8	Z8	

1	0	-0.18373331	0.54555107	0.07508580	-0.14825776	-0.33058045	-0.00572968	-0.02958886	0.04954262	-0.15780632	-0.00693598	-0.03331287	0.08102994	-0.10659326	0.03511599	0.13256379	-0.21867537	-0.05366055	0.09052697	0.02168571	0.01282693	-0.01858542	-0.00507282	0.02576963	0.00059892
2	0.01000000	-0.17826336	0.56130649	0.06461824	-0.15535975	-0.32946924	-0.00415711	-0.04101440	0.04956498	-0.16496292	-0.00027630	-0.03361993	0.07894661	-0.11267620	0.03111265	0.13337379	-0.22162177	-0.06289924	0.08886505	0.02162801	0.00645000	-0.01792181	-0.00419418	0.02452571	-0.00424498
3	0.02000000	-0.17677124	0.56982509	0.06679675	-0.16388848	-0.33440098	-0.00850864	-0.04524415	0.05052745	-0.16254850	0.00892094	-0.03761967	0.07637498	-0.12951146	0.03288204	0.13407019	-0.22496306	-0.06607326	0.10217882	0.02595250	0.01050909	-0.02327610	-0.00681720	0.02636077	-0.00073063
4	0.03000000	-0.17372618	0.54398140	0.07091253	-0.16463881	-0.33689661	-0.00772122	-0.04335777	0.05328611	-0.15524383	0.01473243	-0.04342476	0.07331086	-0.11462448	0.03763395	0.13528933	-0.22537063	-0.06510348	0.10816368	0.02477373	0.01308604	-0.02020316	-0.00580438	0.02742270	-0.00124461
5	0.04000000	-0.16392604	0.53083131	0.06999551	-0.16042539	-0.33239433	-0.00527397	-0.02555179	0.04937637	-0.15542294	0.01854274	-0.04681467	0.06913472	-0.08641625	0.04603117	0.13220199	-0.22202493	-0.06803734	0.11013547	0.02382882	0.01129389	-0.02216825	-0.00460226	0.03294905	-0.00833742
6	0.05000000	-0.16480068	0.53695210	0.07656705	-0.16335525	-0.32906570	-0.00357113	0.00372569	0.05407203	-0.15649103	0.02359788	-0.05007067	0.06171077	-0.09241454	0.04258526	0.12734658	-0.21734501	-0.06793580	0.11485545	0.02622797	0.00868315	-0.02297883	-0.00542894	0.03505647	-0.00647958
7	0.06000000	-0.17554314	0.53470830	0.08384927	-0.16646947	-0.32012564	0.00009950	0.00594015	0.05723999	-0.15594218	0.03267650	-0.05410188	0.05110195	-0.11436749	0.03595579	0.12848493	-0.20684377	-0.06961348	0.11562475	0.02511490	0.00875952	-0.02215641	-0.00625873	0.03694943	-0.00423138
8	0.07000000	-0.16413341	0.53460469	0.08941474	-0.17286437	-0.30797988	0.00524187	-0.00714203	0.05742500	-0.14183613	0.04474999	-0.05613918	0.03813179	-0.12963327	0.02694632	0.13301431	-0.18354278	-0.06920529	0.11058320	0.02359529	0.00622341	-0.02139340	-0.00495227	0.03491256	-0.00716538
9	0.08000000	-0.15665612	0.53702593	0.07731615	-0.18159804	-0.29558710	0.00444564	0.00352111	0.05637765	-0.12564119	0.05197890	-0.05533001	0.02396001	-0.12076593	0.03343592	0.13570009	-0.15853662	-0.07418550	0.10711509	0.01761731	0.00287460	-0.01858650	-0.00691168	0.03376647	-0.00482209
10	0.09000000	-0.16327437	0.53570184	0.05811505	-0.17751058	-0.28074398	0.00362171	0.01201083	0.05593090	-0.12698535	0.05767441	-0.06070365	0.00931415	-0.10188715	0.03545212	0.13306097	-0.13625350	-0.08333634	0.10280256	0.01916683	0.00327482	-0.01725962	-0.00570764	0.03039255	0.00142513
11	0.10000000	-0.15966390	0.53489896	0.04753766	-0.16583351	-0.26164762	0.00706091	-0.00253281	0.05164273	-0.13021129	0.07539132	-0.06760838	-0.01090401	-0.10914373	0.03041773	0.12444902	-0.11241086	-0.08666491	0.09717141	0.02249636	0.00261225	-0.01601227	-0.00466639	0.02241820	-0.00003542
12	0.11000000	-0.14680952	0.53094344	0.04092168	-0.14838139	-0.24343628	0.00800964	-0.01536732	0.04517480	-0.11968799	0.09619257	-0.06989122	-0.03159113	-0.10543693	0.03368807	0.11218396	-0.09277616	-0.09104691	0.10118919	0.01490859	0.00232179	-0.01500405	-0.00689130	0.02357978	-0.00037920
13	0.12000000	-0.13102102	0.52015478	0.04309036	-0.12986443	-0.22924412	0.00769264	-0.02311902	0.04615245	-0.10062486	0.10493029	-0.06772038	-0.04605796	-0.09159303	0.02906311	0.10348877	-0.07167849	-0.09332059	0.10672583	0.01475653	0.00085158	-0.01491792	-0.00471890	0.02709417	-0.00238201
14	0.13000000	-0.11981840	0.50753267	0.04431875	-0.12160527	-0.21118824	0.01503003	-0.02071997	0.05026089	-0.08476383	0.11300438	-0.06733040	-0.06246326	-0.08238632	0.02214648	0.09921284	-0.04995977	-0.09282299	0.11561423	0.01902691	0.00381853	-0.01236029	-0.00244810	0.03042153	-0.00590886
15	0.14000000	-0.10613476	0.49626090	0.04273175	-0.10929122	-0.19138081	0.01773911	-0.00826362	0.04307472	-0.07202820	0.11009193	-0.06885815	-0.07354573	-0.07438358	0.01538258	0.09859851	-0.02990908	-0.08804797	0.13080575	0.01712994	0.00878206	-0.01071030	-0.00530447	0.03431921	-0.00721978
16	0.15000000	-0.09330381	0.48103697	0.03818714	-0.09557333	-0.17416053	0.02097104	0.00835831	0.04270309	-0.06760576	0.10046491	-0.06969151	-0.07943869	-0.08106062	0.01336282	0.09156963	-0.00663642	-0.08395576	0.14654353	0.01028168	0.01125685	-0.00854689	-0.00522553	0.03993977	-0.00422151
17	0.16000000	-0.08034138	0.45772573	0.03737296	-0.08328559	-0.15335106	0.01733386	0.02110462	0.04374667	-0.06577115	0.09037944	-0.07201019	-0.08410751	-0.08261408	0.00324537	0.08538349	0.01865578	-0.08105974	0.15570600	0.01558919	0.01232465	-0.00664740	-0.00257703	0.04352297	-0.00411029
18	0.17000000	-0.06707118	0.43146786	0.04092342	-0.07030905	-0.12981112	0.01347438	0.01058433	0.03188084	-0.06051675	0.07346557	-0.06896473	-0.09352778	-0.08577570	-0.01092469	0.07652854	0.03673982	-0.08020665	0.16062784	0.01436167	0.01565043	-0.00638350	-0.00462898	0.04811399	-0.01275631
19	0.18000000	-0.05845016	0.40337521	0.03764513	-0.06443297	-0.10278922	0.01229537	-0.00450155	0.02726885	-0.05042296	0.04996279	-0.05662203	-0.09838749	-0.09112713	-0.02070913	0.06905796	0.05658106	-0.07986179	0.16392678	0.00637374	0.02001413	-0.00146048	-0.00266303	0.05097169	-0.01602772
20	0.19000000	-0.04694919	0.37394229	0.03045681	-0.05404619	-0.07758013	0.00501852	-0.00499799	0.03868915	-0.04513177	0.03523428	-0.04895003	-0.10067336	-0.08585429	-0.03027667	0.06533862	0.07569420	-0.08077620	0.16713954	0.00592148	0.01937404	0.00364305	0.00033937	0.04870811	-0.01330818
21	0.20000000	-0.03657145	0.35333713	0.02475075	-0.03974202	-0.05581077	0.00028606	-0.00041712	0.05311579	-0.04764484	0.02896172	-0.04152021	-0.10860055	-0.09750535	-0.03962181	0.05035455	0.08936491	-0.07819341	0.17120318	0.00635833	0.01763657	0.00353129	-0.00095332	0.04743760	-0.01413243
22	0.21000000	-0.02203376	0.34209533	0.02151417	-0.03002974	-0.03245453	0.00280262	0.00914096	0.05151219	-0.03524536	0.02770785	-0.03261611	-0.11932070	-0.10430505	-0.05166397	0.03381469	0.09622579	-0.07428255	0.17297713	0.00577382	0.01560443	0.00256917	-0.00122483	0.04494724	-0.01416848
23	0.22000000	-0.01002813	0.33070591	0.01566743	-0.02450304	-0.01170147	-0.00320528	0.00743204	0.04450070	-0.01197134	0.03380339	-0.03190184	-0.12752016	-0.09358720	-0.06161319	0.01969108	0.09032243	-0.07429041	0.17710257	-0.00045513	0.00654545	0.00158265	0.00157952	0.04384858	-0.01554128
24	0.23000000	0.00610952	0.31975501	0.01183423	-0.01842761	0.00856192	-0.00293676	0.00660852	0.03692439	0.00691736	0.03451785	-0.03212742	-0.12767692	-0.06851101	-0.06061977	0.01031038	0.07960250	-0.07302344	0.19117473	0.00578306	0.00476337	-0.00441866	0.00311914	0.04543557	-0.01374628
25	0.24000000	0.02404618	0.30005291	0.00725301	-0.01944691	0.02979665	-0.00429480	0.00142987	0.03242586	0.01149979	0.02670384	-0.02912511	-0.13311141	-0.01343325	-0.05542247	0.00794667	0.06051893	-0.06545082	0.20490012	0.00417965	0.00451030	-0.00313788	0.00417030	0.04852663	-0.01437011
26	0.25000000	0.03881652	0.28262010	0.00710421	-0.02972288	0.05025622	-0.01751527	-0.03348214	0.04413628	0.00269097	0.00546292	-0.02371953	-0.13144281	0.07266377	-0.05493548	-0.00113743	0.04739439	-0.06359066	0.21877890	-0.00006315	-0.00481456	-0.00203043	0.00498742	0.04645603	-0.01216567
27	0.26000000	0.05675400	0.27669857	0.00907125	-0.04221231	0.06509198	-0.02162298	-0.05825982	0.04854166	0.00268782	-0.02220091	-0.01681453	-0.11985849	0.15028053	-0.06853500	-0.01091709	0.03309576	-0.06338192	0.22921478	0.00119896	-0.01178767	-0.00201291	0.00407403	0.03963711	-0.01078635
28	0.27000000	0.07197736	0.26495675	0.00578689	-0.05736763	0.07677648	-0.03095842	-0.06627733	0.04216647	0.01420964	-0.04644892	-0.00753037	-0.10824713	0.15513246	-0.07173601	-0.01677785	0.00047234	-0.05746277	0.23759961	0.00094006	-0.01007414	0.00023580	0.00093920	0.03525952	-0.01044356
29	0.28000000	0.09305732	0.24626268	0.00476667	-0.06641279	0.09043497	-0.03408497	-0.06782349	0.04066082	0.01142349	-0.07941528	0.00222601	-0.09278251	0.09753736	-0.05879520	-0.02650627	-0.03373323	-0.05295362	0.24347539	-0.00004107	-0.00754576	0.00014020	0.00274878	0.03177730	-0.00839553
30	0.29000000	0.11319436	0.23019577	-0.00019021	-0.06739820	0.10208690	-0.04882406	-0.06455321	0.03169449	-0.00581837	-0.10854985	0.01354697	-0.07876885	0.04751822	-0.06065833	-0.02518621	-0.06941380	-0.04089426	0.23793406	-0.00142953	-0.00989980	-0.00293747	0.00882419	0.02482616	-0.01154494
31	0.30000000	0.12437099	0.22625913	-0.00413095	-0.06066866	0.10904631	-0.06458366	-0.05588243	0.03112449	-0.02032402	-0.12638321	0.02795073	-0.06356322	0.09508151	-0.06535611	-0.01405716	-0.09692409	-0.02574684	0.22081285	0.00460744	-0.00718992	-0.00332431	0.01118470	0.01521806	-0.00798269
32	0.31000000	0.13653445	0.21180097	-0.00300635	-0.04815229	0.11829547	-0.06111505	-0.04578347	0.04043270	-0.02178656	-0.13431330	0.03980623	-0.05266365	0.14210798	-0.06749760	-0.01268978	-0.11768473	-0.01580987	0.18635542	0.00258666	-0.00935753	-0.00837803	0.00960339	0.00566222	-0.00790853
33	0.32000000	0.15105923	0.18523188	0.00479799	-0.03422854	0.12655030	-0.06520789	-0.03584459	0.03690459	-0.01613301	-0.12941832	0.05206335	-0.04161342	0.06534255	-0.06522310	-0.01908808	-0.14285912	-0.01152769	0.14876049	0.00482481	-0.00669296	-0.01144157	0.00825423	0.00028630	-0.00678392
34	0.33000000	0.16577990	0.17221365	0.01190939	-0.01867229	0.12679572	-0.07723716	-0.03251655	0.03334605	-0.01660528	-0.11759565	0.06052887	-0.03698817	-0.01869269	-0.05475901	-0.01989901	-0.15998217	-0.01385976	0.12507388	0.01153634	-0.00630065	-0.00989443	0.00599282	-0.00054731	-0.00168215
